<svg width="20" height="20" viewBox="0 0 20 20" fill="none" xmlns="http://www.w3.org/2000/svg">
<path d="M9.99438 11.16C6.58539 11.16 3.81836 8.66 3.81836 5.58C3.81836 2.5 6.58539 0 9.99438 0C13.4034 0 16.1704 2.5 16.1704 5.58C16.1704 8.66 13.4034 11.14 9.99438 11.16ZM9.99438 1.2C7.31589 1.2 5.14654 3.16 5.14654 5.58C5.14654 8 7.31589 9.96 9.99438 9.96C12.6729 9.96 14.8422 8 14.8422 5.58C14.8422 3.16 12.6729 1.2 9.99438 1.2Z" fill="#343434"/>
<path d="M19.4687 20H0.520086L0.365133 19.6C-0.785953 16.7 0.874267 13.52 4.08403 12.5C4.43821 12.38 4.81452 12.3 5.21298 12.24V12.18L5.87706 12.16H13.824C17.233 12.16 20 14.64 20 17.72C20 18.36 19.8893 19 19.6458 19.6L19.4687 20ZM1.47195 18.8H18.5169C18.6054 18.46 18.6718 18.1 18.6718 17.74C18.6718 15.32 16.5025 13.36 13.824 13.36H6.07629L5.8992 13.38C3.33139 13.5 1.31699 15.42 1.31699 17.74C1.31699 18.1 1.3834 18.46 1.47195 18.8Z" fill="#343434"/>
</svg>
